<svg id="Layer_1" xmlns="http://www.w3.org/2000/svg" viewBox="0 0 612 792"><style>.st0{fill:#FFF}.st1{fill:#de1430}.st2{fill:#de281c}</style><path class="st0" d="M107.5 237.4s7 16.8 19.9 37.7l328 23.4L375 117l-290 2 22.5 118.4z"/><path class="st1" d="M70.8 41.6h470.1S572 287 324 427.5c0 0-31.2 211.8 127.2 304.2l-5.5 19.2H167.9l-6.4-19.1S309.4 669.6 288 427.5c0 0-119.4-78.2-160.4-152.5l105.3-63.4L376 291.8h75.1l-186-99.5L369 129.6h-67.3l-75.5 41.9-73-39.2H90.1l103.5 57.3-86.1 47.7c0 .1-43.3-74.1-36.7-195.7zM574.3 95.8c-9.4 0-17-7.6-17-17s7.6-17 17-17 17 7.6 17 17-7.6 17-17 17zm0-30.9c-7.6 0-13.8 6.2-13.8 13.8s6.2 13.8 13.8 13.8c7.6 0 13.8-6.2 13.8-13.8s-6.2-13.8-13.8-13.8z"/><path class="st2" d="M568.9 86V71.4h6.5c1.3 0 2.3.1 3 .4.7.3 1.2.7 1.6 1.4.4.7.6 1.4.6 2.2 0 1-.3 1.9-1 2.6-.7.7-1.7 1.2-3.1 1.4.5.2.9.5 1.2.7.6.5 1.1 1.2 1.6 1.9l2.5 4h-2.4l-1.9-3c-.6-.9-1-1.5-1.4-2-.4-.5-.7-.8-1-1-.3-.2-.6-.3-.9-.4-.2 0-.6-.1-1.1-.1h-2.2V86h-2zm1.9-8.1h4.2c.9 0 1.6-.1 2.1-.3.5-.2.9-.5 1.1-.9.3-.4.4-.8.4-1.3 0-.7-.3-1.3-.8-1.7-.5-.4-1.3-.7-2.4-.7h-4.6v4.9z"/></svg>